<svg width="296" height="296" viewBox="0 0 296 296" fill="none" xmlns="http://www.w3.org/2000/svg">
<circle cx="148" cy="148" r="144.5" stroke="#9A4C02" stroke-width="7"/>
<g clip-path="url(#clip0_12_152)">
<path d="M47.9852 219.934H211.927V55.9854L47.9852 219.934ZM181.268 189.452H120.282L181.268 128.472V189.452Z" fill="#FAA61A" stroke="#52331A" stroke-width="5.86" stroke-miterlimit="10"/>
<path d="M68.0743 211.409V219.934" stroke="#52331A" stroke-width="5.86" stroke-miterlimit="10"/>
<path d="M78.4044 211.409V219.934" stroke="#52331A" stroke-width="5.86" stroke-miterlimit="10"/>
<path d="M88.7274 211.409V219.934" stroke="#52331A" stroke-width="5.86" stroke-miterlimit="10"/>
<path d="M99.0575 211.409V219.934" stroke="#52331A" stroke-width="5.86" stroke-miterlimit="10"/>
<path d="M109.388 211.409V219.934" stroke="#52331A" stroke-width="5.86" stroke-miterlimit="10"/>
<path d="M119.718 211.409V219.934" stroke="#52331A" stroke-width="5.86" stroke-miterlimit="10"/>
<path d="M130.048 211.409V219.934" stroke="#52331A" stroke-width="5.86" stroke-miterlimit="10"/>
<path d="M140.371 211.409V219.934" stroke="#52331A" stroke-width="5.86" stroke-miterlimit="10"/>
<path d="M150.701 211.409V219.934" stroke="#52331A" stroke-width="5.86" stroke-miterlimit="10"/>
<path d="M161.024 211.409V219.934" stroke="#52331A" stroke-width="5.86" stroke-miterlimit="10"/>
<path d="M171.361 211.409V219.934" stroke="#52331A" stroke-width="5.86" stroke-miterlimit="10"/>
<path d="M181.677 211.409V219.934" stroke="#52331A" stroke-width="5.86" stroke-miterlimit="10"/>
<path d="M192.007 211.409V219.934" stroke="#52331A" stroke-width="5.86" stroke-miterlimit="10"/>
<path d="M202.33 211.409V219.934" stroke="#52331A" stroke-width="5.86" stroke-miterlimit="10"/>
</g>
<defs>
<clipPath id="clip0_12_152">
<rect width="171" height="171" fill="white" transform="translate(43 51)"/>
</clipPath>
</defs>
</svg>
