<svg width="262" height="44" viewBox="0 0 262 44" fill="none" xmlns="http://www.w3.org/2000/svg">
<path d="M209.437 43.3601C210.196 39.3277 210.907 35.6748 211.571 31.9745C211.714 31.2154 211.809 30.3615 211.524 29.6973C209.626 24.7636 207.681 19.8298 205.689 14.8961C205.594 14.6114 205.404 14.3742 205.072 13.8524C202.795 16.7462 200.613 19.4503 198.478 22.1544C197.766 23.0558 197.15 24.0994 196.296 24.9059C192.026 28.9383 190.745 34.1567 189.891 39.6597C189.18 44.2614 189.844 43.2177 185.717 43.3601C184.246 43.4075 182.775 43.3601 181.067 43.3601C181.732 39.9444 182.206 36.7659 182.965 33.6349C183.439 31.5949 183.439 29.8397 182.586 27.8472C180.688 23.4353 179.075 18.9759 177.272 14.5166C176.988 13.7575 176.561 13.0459 175.944 11.765C175.043 16.3193 174.236 20.3042 173.477 24.2892C172.339 30.0769 171.153 35.8171 170.061 41.6048C169.824 42.9331 169.35 43.5024 167.927 43.4075C165.887 43.3126 163.799 43.3601 161.522 43.3601C161.997 40.9406 162.376 38.8533 162.898 36.1017C161.902 37.3352 161.285 38.2365 160.573 38.9481C157.822 41.842 154.169 43.028 150.421 43.1703C141.503 43.4075 132.536 43.3601 123.618 43.3126C123.143 43.3126 122.337 42.5061 122.195 41.9369C121.72 40.3239 121.435 38.6635 121.151 37.0031C121.008 36.0069 120.582 35.5325 119.538 35.5325C114.746 35.5799 109.955 35.5325 105.164 35.5799C104.547 35.5799 103.74 36.1492 103.361 36.671C102.27 38.284 101.226 39.8969 100.372 41.6522C99.708 43.028 98.8066 43.4549 97.2885 43.3601C95.2486 43.2177 93.1613 43.3126 90.7418 43.3126C91.1213 42.601 91.3585 42.1266 91.6432 41.6997C98.4745 30.9308 105.401 20.2094 112.185 9.44049C113.276 7.73265 114.414 6.97361 116.502 7.06849C121.862 7.21081 121.862 7.11593 123.096 12.3343C124.946 19.9722 126.844 27.6574 128.741 35.2953C128.884 35.8171 129.073 36.3389 129.643 36.8133C130.781 31.0731 131.92 25.3329 133.058 19.5926C133.77 16.0346 134.434 12.4766 135.193 8.91865C135.383 8.11217 135.288 7.06849 136.711 7.11593C143.353 7.25825 150.042 7.30569 156.683 7.54289C158.154 7.59033 159.767 8.15961 161.095 8.91865C166.219 11.9074 166.124 19.3554 161 23.1506C160.336 23.625 159.625 24.0994 158.628 24.7636C161.57 26.3291 163.325 28.4639 163.61 31.8321C163.799 31.1205 164.037 30.4089 164.179 29.6499C164.369 28.8909 164.463 28.1318 164.606 27.3728C165.792 21.1582 167.025 14.9435 168.164 8.68145C168.354 7.59033 168.781 7.02105 170.061 7.02105C173.667 7.11593 177.32 7.11593 180.925 7.02105C182.301 6.97361 182.728 7.68521 183.155 8.72889C184.815 12.9985 186.523 17.2681 188.231 21.5377C188.421 22.0121 188.658 22.439 189.037 23.1981C191.172 20.5414 193.165 18.122 195.11 15.6551C197.055 13.2357 198.905 10.7214 200.945 8.39681C201.514 7.73265 202.605 7.21081 203.507 7.11593C205.452 6.92617 207.397 7.11593 209.342 7.02105C210.528 6.97361 211.05 7.44801 211.429 8.49169C212.995 12.619 214.655 16.6988 216.268 20.7786C216.553 21.4902 216.885 22.1544 217.359 23.2455C219.778 20.2094 222.056 17.4104 224.285 14.6114C226.041 12.4292 227.748 10.247 229.504 8.11217C229.836 7.68521 230.405 7.16337 230.879 7.16337C233.299 7.06849 235.766 7.11593 238.517 7.11593C238.043 7.82753 237.806 8.20705 237.521 8.58657C232.445 15.0384 227.416 21.5377 222.198 27.8946C220.443 30.0769 219.541 32.4014 219.162 35.0581C218.83 37.3352 218.355 39.6597 217.786 41.8894C217.644 42.4113 216.98 43.1703 216.553 43.1703C214.275 43.4549 211.998 43.3601 209.437 43.3601ZM137.897 36.7659C142.404 36.7659 146.768 36.7659 151.133 36.7659C151.512 36.7659 151.892 36.5761 152.224 36.3864C154.501 35.2953 155.497 33.3028 155.023 30.9782C154.691 29.3178 153.125 28.2267 150.658 28.1318C147.385 28.0369 144.064 28.0844 140.791 28.1318C140.317 28.1318 139.558 28.5588 139.463 28.8909C138.846 31.5001 138.372 34.1567 137.897 36.7659ZM140.744 22.2493C144.918 22.0121 148.856 22.0121 152.698 21.4902C155.165 21.1582 156.494 18.7862 156.209 16.4142C155.972 14.6589 154.406 13.4254 151.892 13.3306C149.14 13.2357 146.341 13.2831 143.59 13.3306C143.163 13.3306 142.404 13.7575 142.309 14.137C141.74 16.6988 141.313 19.2606 140.744 22.2493ZM116.549 15.9398C116.359 15.8923 116.217 15.7974 116.027 15.75C113.371 20.1619 110.714 24.5738 107.868 29.2704C111.9 29.2704 115.553 29.2704 119.396 29.2704C118.399 24.7162 117.451 20.3042 116.549 15.9398Z" fill="#52331A"/>
<path d="M17.3522 6.64159C16.4983 5.12351 15.8341 3.89008 15.1226 2.70408C15.2649 2.6092 15.3598 2.46688 15.5021 2.372C16.5457 3.0836 17.6369 3.84264 18.6805 4.55423C18.7754 4.50679 18.9177 4.41191 19.0126 4.36447C18.4908 3.03616 17.9689 1.75528 17.3048 0C20.0563 2.1348 22.3809 4.07984 24.8477 5.78767C25.8914 6.49927 27.3146 7.02111 28.5481 7.02111C53.7861 7.06855 79.0241 7.06855 104.31 7.06855C105.353 7.06855 106.35 7.06855 107.82 7.06855C107.251 7.59039 107.014 7.87503 106.682 8.11223C100.182 13.1883 92.6869 14.8013 84.6221 14.7538C72.2402 14.7064 59.9059 14.7064 47.524 14.8013C46.006 14.8013 43.4442 13.9473 43.4916 16.3668C43.5391 18.6439 46.1008 17.8374 47.6664 17.8849C61.8983 17.9323 76.1303 17.9323 90.4097 17.9323C91.1688 17.9323 91.9278 17.9323 93.1138 17.9323C90.9316 20.921 88.1801 22.4865 85.0965 23.0558C80.2576 23.9572 75.3713 24.5265 70.485 24.906C66.3102 25.1906 62.0881 25.0009 57.8659 24.9534C56.6799 24.9534 55.5414 25.0483 55.5888 26.6138C55.5888 28.0844 56.7274 28.3691 57.9134 28.3691C66.3102 28.3691 74.7546 28.3216 83.1514 28.3216C83.9579 28.3216 84.8118 28.3216 85.6183 28.3216C85.6657 28.6537 85.7132 28.8435 85.6657 28.8909C80.4473 33.3028 75.3238 37.9045 68.9194 40.656C63.4164 43.028 57.6287 43.8345 51.6513 43.7396C49.6588 43.6922 47.6189 43.6922 45.6264 43.5973C43.4442 43.5024 41.8312 42.4588 40.7876 40.5137C38.7951 36.6711 36.9449 32.7336 34.7627 28.9858C33.719 27.1831 32.1061 25.7125 30.588 24.1944C29.7341 23.3405 28.7378 23.3405 27.5993 24.1469C23.7566 26.9933 19.8191 29.6025 14.9802 30.7411C13.1775 31.168 11.5171 32.8759 10.0939 34.2991C8.2912 36.1492 6.34616 35.7697 4.30624 35.3428C2.36121 34.9632 0.748248 34.2042 0.178969 32.0694C-0.200551 30.7411 -0.0107908 29.6025 1.08033 28.7486C6.67824 24.479 9.52464 18.4067 11.8018 12.0023C12.7506 9.25079 14.0789 7.06855 17.3522 6.64159Z" fill="#52331A"/>
<path d="M262 43.3601C259.533 43.3601 257.256 43.455 255.026 43.3127C254.552 43.2652 253.84 42.6011 253.698 42.0792C253.271 40.5137 252.986 38.9482 252.749 37.3352C252.512 36.0544 251.943 35.4851 250.567 35.5325C246.06 35.6274 241.506 35.5325 236.999 35.6274C236.24 35.6274 235.291 36.1967 234.864 36.8134C233.726 38.3789 232.824 40.0868 231.876 41.7946C231.259 42.8857 230.5 43.5024 229.124 43.4075C226.989 43.2652 224.855 43.3601 222.388 43.3601C222.72 42.6485 222.909 42.1267 223.194 41.6997C230.168 30.7411 237.189 19.8299 244.115 8.82383C244.969 7.49551 245.918 6.97367 247.436 7.11599C249.334 7.25831 251.848 6.59415 253.081 7.54295C254.315 8.49175 254.315 11.0535 254.789 12.9037C257.161 22.5814 259.533 32.2117 261.858 41.8895C261.905 42.269 261.905 42.6485 262 43.3601ZM239.419 29.1756C243.451 29.1756 247.104 29.1756 250.946 29.1756C249.95 24.5265 249.001 20.1145 247.91 15.1333C244.874 20.1145 242.218 24.5265 239.419 29.1756Z" fill="#52331A"/>
</svg>
