<svg width="296" height="296" viewBox="0 0 296 296" fill="none" xmlns="http://www.w3.org/2000/svg">
<circle cx="148" cy="148" r="144.5" stroke="#9A4C02" stroke-width="7"/>
<g clip-path="url(#clip0_11_150)">
<path d="M180.343 211.504C179.422 191.996 184.007 186.24 190.347 178.244C193.419 174.377 196.907 169.983 200.615 162.953C212.089 141.182 221.15 123.959 202.897 88.9622C185.345 55.3499 148.027 56.8218 147.654 56.8438H147.522H147.368C145.811 56.7779 109.611 55.4378 92.1254 88.9842C73.8719 123.981 82.9328 141.182 94.4071 162.975L96.8204 166.864L113.999 148.036L116.083 151.024C116.083 151.024 119.813 156.363 124.376 160.91C128.939 165.48 134.205 169.17 134.249 169.214L137.079 171.192L101.844 207.286L97.676 203.2L128.194 171.96C126.087 170.335 123.082 167.874 120.273 165.04C117.531 162.294 115.118 159.372 113.494 157.263L95.9428 176.486L89.383 165.853C77.9307 144.258 67.2682 124.002 86.9477 86.282C105.618 50.4728 144.802 50.9342 147.5 51.0001C150.22 50.9342 189.382 50.4728 208.052 86.282C227.732 124.002 217.047 144.258 205.771 165.699C201.822 173.191 197.982 178.024 194.911 181.89C188.943 189.382 185.345 193.929 186.157 211.241L180.343 211.504Z" fill="#52331A"/>
<path d="M184.051 222.357H108.053V204.804H113.867V216.535H184.051V222.357Z" fill="#52331A"/>
<path d="M186.311 109.503C183.744 112.051 179.597 112.051 177.03 109.503C174.463 106.955 174.463 102.803 177.03 100.232C179.597 97.6619 183.744 97.6619 186.311 100.232C188.877 102.803 188.877 106.933 186.311 109.503Z" fill="#52331A"/>
<path d="M173.608 114.117L158.535 129.209C159.194 130.747 158.908 132.57 157.68 133.823C156.056 135.448 153.402 135.448 151.778 133.823C150.155 132.197 150.155 129.561 151.778 127.913C153.029 126.661 154.85 126.375 156.385 127.056L171.458 111.964C163.099 116.467 145.876 124.288 130.212 122.245C130.212 122.245 127.557 136.503 119.286 147.465C119.286 147.465 123.104 152.935 127.908 157.747C132.713 162.558 138.176 166.38 138.176 166.38C149.102 158.076 163.362 155.44 163.362 155.44C161.322 139.754 169.132 122.509 173.63 114.139L173.608 114.117Z" fill="#FAA61A"/>
<path d="M157.987 261H139.602L127.118 246.083H170.426L157.987 261Z" fill="#52331A"/>
<path d="M185.323 228.794H112.244V238.943H185.323V228.794Z" fill="#52331A"/>
</g>
<defs>
<clipPath id="clip0_11_150">
<rect width="143" height="210" fill="white" transform="translate(76 51)"/>
</clipPath>
</defs>
</svg>
