<svg width="390" height="66" viewBox="0 0 390 66" fill="none" xmlns="http://www.w3.org/2000/svg">
<path d="M311.757 64.5435C312.886 58.5411 313.946 53.1036 314.934 47.5955C315.146 46.4656 315.287 45.1945 314.864 44.2059C312.039 36.8617 309.144 29.5176 306.178 22.1735C306.037 21.7498 305.754 21.3967 305.26 20.6199C301.87 24.9275 298.622 28.9527 295.444 32.9778C294.385 34.3195 293.467 35.8731 292.196 37.0736C285.84 43.076 283.934 50.8439 282.662 59.0354C281.603 65.8852 282.592 64.3316 276.448 64.5435C274.259 64.6141 272.07 64.5435 269.528 64.5435C270.516 59.4591 271.223 54.7278 272.352 50.0671C273.059 47.0306 273.059 44.4177 271.788 41.4518C268.963 34.8845 266.562 28.2465 263.878 21.6085C263.455 20.4787 262.819 19.4194 261.901 17.5128C260.559 24.292 259.359 30.2238 258.229 36.1556C256.534 44.7708 254.769 53.3154 253.145 61.9307C252.792 63.9079 252.085 64.7553 249.967 64.6141C246.93 64.4729 243.823 64.5435 240.434 64.5435C241.14 60.942 241.705 57.8349 242.482 53.7391C240.999 55.5752 240.081 56.9169 239.021 57.9761C234.926 62.2838 229.488 64.0492 223.909 64.261C210.633 64.6141 197.287 64.5435 184.011 64.4729C183.305 64.4729 182.104 63.2724 181.892 62.425C181.186 60.024 180.763 57.5524 180.339 55.0809C180.127 53.5979 179.492 52.8917 177.938 52.8917C170.806 52.9624 163.673 52.8917 156.541 52.9624C155.623 52.9624 154.423 53.8098 153.858 54.5865C152.233 56.9875 150.68 59.3885 149.409 62.0013C148.42 64.0492 147.078 64.6847 144.819 64.5435C141.782 64.3316 138.675 64.4729 135.074 64.4729C135.639 63.4136 135.992 62.7075 136.415 62.0719C146.584 46.0419 156.894 30.0825 166.992 14.0525C168.617 11.5103 170.311 10.3805 173.418 10.5217C181.398 10.7336 181.398 10.5923 183.234 18.3602C185.988 29.7295 188.813 41.1694 191.638 52.5387C191.849 53.3154 192.132 54.0922 192.979 54.7984C194.674 46.2538 196.369 37.7091 198.064 29.1645C199.123 23.8683 200.112 18.572 201.241 13.2758C201.524 12.0753 201.383 10.5217 203.501 10.5923C213.388 10.8042 223.344 10.8748 233.231 11.2279C235.42 11.2985 237.821 12.1459 239.798 13.2758C247.425 17.7246 247.284 28.8114 239.657 34.4608C238.668 35.1669 237.609 35.8731 236.126 36.8617C240.504 39.1921 243.117 42.3698 243.541 47.3836C243.823 46.3244 244.176 45.2651 244.388 44.1353C244.671 43.0054 244.812 41.8755 245.024 40.7457C246.789 31.4949 248.625 22.2441 250.32 12.9227C250.603 11.2985 251.238 10.4511 253.145 10.4511C258.512 10.5923 263.949 10.5923 269.316 10.4511C271.364 10.3805 271.999 11.4397 272.635 12.9933C275.107 19.3488 277.649 25.7043 280.191 32.0598C280.473 32.766 280.826 33.4015 281.391 34.5314C284.569 30.5769 287.535 26.9754 290.43 23.3033C293.326 19.7019 296.08 15.9592 299.116 12.499C299.964 11.5103 301.588 10.7336 302.93 10.5923C305.825 10.3099 308.72 10.5923 311.615 10.4511C313.381 10.3805 314.158 11.0866 314.722 12.6402C317.053 18.7839 319.524 24.8569 321.925 30.9299C322.349 31.9892 322.843 32.9778 323.55 34.602C327.151 30.0825 330.541 25.9162 333.86 21.7498C336.472 18.5014 339.015 15.253 341.627 12.0753C342.122 11.4397 342.969 10.6629 343.675 10.6629C347.277 10.5217 350.949 10.5923 355.045 10.5923C354.338 11.6516 353.985 12.2165 353.562 12.7814C346.006 22.3853 338.52 32.0598 330.752 41.5224C328.14 44.7708 326.798 48.231 326.233 52.1856C325.739 55.5752 325.033 59.0354 324.185 62.3544C323.973 63.1312 322.985 64.261 322.349 64.261C318.96 64.6847 315.57 64.5435 311.757 64.5435ZM205.267 54.7278C211.975 54.7278 218.472 54.7278 224.969 54.7278C225.534 54.7278 226.099 54.4453 226.593 54.1628C229.982 52.5387 231.465 49.5728 230.759 46.1125C230.265 43.641 227.935 42.0168 224.262 41.8755C219.39 41.7343 214.447 41.8049 209.574 41.8755C208.868 41.8755 207.738 42.5111 207.597 43.0054C206.679 46.8893 205.973 50.8439 205.267 54.7278ZM209.504 33.1191C215.718 32.766 221.579 32.766 227.299 31.9892C230.971 31.4949 232.948 27.964 232.525 24.4332C232.172 21.8204 229.841 19.9844 226.099 19.8431C222.003 19.7019 217.836 19.7725 213.741 19.8431C213.105 19.8431 211.975 20.4787 211.834 21.0436C210.987 24.8569 210.351 28.6702 209.504 33.1191ZM173.489 23.727C173.207 23.6564 172.995 23.5152 172.712 23.4446C168.758 30.0119 164.803 36.5793 160.566 43.5703C166.569 43.5703 172.006 43.5703 177.726 43.5703C176.243 36.7911 174.831 30.2238 173.489 23.727Z" fill="#F8F5EE"/>
<path d="M25.8296 9.88634C24.5585 7.6266 23.5699 5.79057 22.5107 4.02515C22.7225 3.88392 22.8637 3.67207 23.0756 3.53083C24.6292 4.59009 26.2533 5.71995 27.8069 6.7792C27.9481 6.70859 28.16 6.56735 28.3012 6.49674C27.5244 4.51947 26.7477 2.61282 25.759 0C29.8548 3.17775 33.315 6.07304 36.9871 8.61524C38.5407 9.67449 40.6592 10.4513 42.4952 10.4513C80.0633 10.5219 117.631 10.5219 155.27 10.5219C156.824 10.5219 158.307 10.5219 160.496 10.5219C159.648 11.2987 159.295 11.7224 158.801 12.0755C149.126 19.6314 137.969 22.0324 125.964 21.9618C107.533 21.8912 89.1728 21.8912 70.7419 22.0324C68.4821 22.0324 64.6688 20.7613 64.7394 24.3628C64.8101 27.7524 68.6234 26.5519 70.9537 26.6225C92.1387 26.6931 113.324 26.6931 134.579 26.6931C135.709 26.6931 136.839 26.6931 138.605 26.6931C135.356 31.142 131.26 33.4723 126.67 34.3197C119.467 35.6614 112.194 36.5088 104.92 37.0738C98.7061 37.4975 92.4212 37.215 86.1363 37.1444C84.3709 37.1444 82.6761 37.2856 82.7467 39.616C82.7467 41.8051 84.4415 42.2288 86.2069 42.2288C98.7061 42.2288 111.276 42.1582 123.775 42.1582C124.975 42.1582 126.247 42.1582 127.447 42.1582C127.518 42.6525 127.588 42.935 127.518 43.0056C119.75 49.5729 112.123 56.4227 102.59 60.5185C94.3985 64.0493 85.7832 65.2498 76.8855 65.1086C73.9196 65.038 70.8831 65.038 67.9172 64.8967C64.6688 64.7555 62.2679 63.2019 60.7143 60.3067C57.7484 54.5867 54.9943 48.7255 51.746 43.1468C50.1924 40.4634 47.7914 38.2743 45.5317 36.0145C44.2606 34.7434 42.7777 34.7434 41.0829 35.9439C35.3629 40.1809 29.5017 44.0648 22.2988 45.7596C19.6154 46.3952 17.1438 48.9374 15.0253 51.0559C12.3419 53.8099 9.44657 53.245 6.41006 52.6094C3.51477 52.0445 1.1138 50.9146 0.266404 47.7369C-0.29853 45.7596 -0.0160627 44.0648 1.60812 42.7937C9.94089 36.4382 14.1779 27.3993 17.5675 17.866C18.9798 13.7703 20.9571 10.5219 25.8296 9.88634Z" fill="#F8F5EE"/>
<path d="M390 64.5436C386.328 64.5436 382.938 64.6848 379.619 64.473C378.913 64.4024 377.854 63.4137 377.642 62.637C377.007 60.3066 376.583 57.9763 376.23 55.5753C375.877 53.6686 375.029 52.8212 372.981 52.8919C366.273 53.0331 359.494 52.8919 352.785 53.0331C351.655 53.0331 350.243 53.8805 349.607 54.7985C347.912 57.1289 346.571 59.6711 345.158 62.2133C344.24 63.8374 343.111 64.7555 341.063 64.6142C337.885 64.4024 334.707 64.5436 331.035 64.5436C331.529 63.4844 331.812 62.7076 332.236 62.072C342.616 45.7596 353.067 29.5177 363.378 13.1347C364.649 11.1574 366.061 10.3806 368.321 10.5925C371.145 10.8043 374.888 9.81568 376.724 11.228C378.56 12.6403 378.56 16.4536 379.266 19.2077C382.797 33.6135 386.328 47.9487 389.788 62.3545C389.859 62.9194 389.859 63.4844 390 64.5436ZM356.387 43.4292C362.389 43.4292 367.826 43.4292 373.546 43.4292C372.063 36.5088 370.651 29.9414 369.027 22.5267C364.507 29.9414 360.553 36.5088 356.387 43.4292Z" fill="#F8F5EE"/>
</svg>
