<svg width="296" height="296" viewBox="0 0 296 296" fill="none" xmlns="http://www.w3.org/2000/svg">
<circle cx="148" cy="148" r="144.5" stroke="#9A4C02" stroke-width="7"/>
<g clip-path="url(#clip0_11_149)">
<path d="M77.397 158.144C77.397 167.025 77.397 175.9 77.397 184.781C77.397 186.721 77.3904 186.727 75.3942 186.727C68.0027 186.727 60.6113 186.753 53.2263 186.727C45.7435 186.695 39.6177 181.818 38.2346 174.812C38.0716 173.972 38.052 173.093 38.052 172.234C38.0389 162.852 38.1955 153.469 37.9998 144.094C37.8497 137.101 43.6559 130.128 52.0325 129.568C54.3093 129.418 54.2962 129.45 54.5441 127.243C56.2534 111.936 61.0223 97.6575 69.3923 84.6941C83.6141 62.6805 103.414 48.2588 128.883 41.7608C135.256 40.1331 141.754 39.2997 148.343 39.0718C169.5 38.323 188.934 43.7401 206.372 55.6357C228.886 70.995 242.808 92.1882 248.209 118.903C248.842 122.028 249.351 125.173 249.534 128.357C249.612 129.724 250.486 129.509 251.341 129.561C257.682 129.913 262.333 132.804 264.995 138.65C265.68 140.161 266 141.756 265.993 143.423C265.98 153.17 266.013 162.91 265.98 172.657C265.954 179.546 260.181 185.796 253.265 186.532C251.811 186.688 250.356 186.825 248.901 186.727C247.857 186.656 247.361 187.06 247.061 188.069C245.437 193.505 243.095 198.643 240.081 203.448C232.135 216.105 221.214 225.155 207.116 230.286C205.994 230.696 205.342 231.23 204.976 232.434C203.567 237.044 198.974 240.267 194.421 239.994C189.182 239.681 184.942 236.042 184.054 231.08C183.193 226.288 185.705 221.379 190.017 219.399C194.682 217.257 199.972 218.416 203.104 222.368C203.828 223.28 204.409 223.443 205.498 223.026C211.741 220.65 217.476 217.368 222.545 213.071C229.395 207.263 234.483 200.101 237.928 191.799C238.417 190.621 238.867 189.43 239.291 188.225C239.8 186.773 239.768 186.74 238.169 186.734C234.888 186.734 231.6 186.695 228.318 186.747C227.111 186.767 226.642 186.415 226.642 185.119C226.681 167.136 226.674 149.146 226.642 131.163C226.642 129.913 227.04 129.503 228.286 129.516C232.481 129.574 236.682 129.516 240.877 129.555C241.894 129.568 242.201 129.327 242.084 128.239C240.446 112.418 235.077 97.983 225.918 84.9741C216.954 72.2452 205.479 62.3876 191.485 55.512C181.902 50.8045 171.79 47.8486 161.143 46.8784C135.433 44.528 112.665 51.6705 93.1193 68.4623C76.8424 82.4478 66.9263 100.216 62.9533 121.279C62.5162 123.597 62.3531 125.967 61.9812 128.305C61.8182 129.32 62.1639 129.555 63.1229 129.548C67.3177 129.509 71.519 129.574 75.7138 129.509C77.0251 129.49 77.4361 129.919 77.4296 131.228C77.3839 140.2 77.4035 149.166 77.4035 158.138L77.397 158.144ZM70.0773 158.255H70.1295C70.1295 151.698 70.0903 145.142 70.1621 138.592C70.1751 137.186 69.5293 136.834 68.368 136.866C67.4156 136.886 66.4566 137.003 65.5041 137.003C61.3093 137.023 57.108 136.964 52.9132 137.036C48.353 137.114 45.3912 140.128 45.3782 144.654C45.3521 153.574 45.3521 162.5 45.3782 171.42C45.3912 176.147 48.5357 179.24 53.3046 179.259C58.3671 179.285 63.4295 179.227 68.492 179.292C69.7707 179.311 70.1164 178.888 70.1034 177.651C70.0512 171.186 70.0773 164.72 70.0773 158.262V158.255ZM233.922 158.144C233.922 158.144 233.948 158.144 233.968 158.144C233.968 164.694 233.988 171.251 233.948 177.801C233.942 178.934 234.307 179.298 235.436 179.285C240.59 179.24 245.737 179.285 250.891 179.253C255.503 179.22 258.641 176.141 258.667 171.55C258.713 162.494 258.7 153.443 258.667 144.387C258.654 140.806 256.514 138.143 253.057 137.225C252.072 136.964 251.067 137.016 250.069 137.016C245.326 136.997 240.583 137.029 235.847 136.958C234.04 136.932 233.922 136.945 233.929 138.768C233.935 145.227 233.929 151.685 233.929 158.151L233.922 158.144Z" fill="#52331A"/>
<path d="M115.398 88.8415C117.929 88.9001 119.998 89.753 121.87 91.1594C123.403 92.3053 124.982 93.3927 126.495 94.5581C127.245 95.1376 127.904 95.1636 128.752 94.7469C130.103 94.0893 131.479 93.4513 132.915 93.015C134.135 92.6374 134.533 91.8756 134.676 90.7427C134.911 88.848 135.204 86.9598 135.485 85.0717C136.287 79.7327 139.98 76.4186 145.355 76.3339C149.87 76.2623 154.391 76.2623 158.905 76.3404C164.04 76.4316 167.778 79.8173 168.521 84.8828C168.815 86.8622 169.122 88.8415 169.376 90.8273C169.513 91.9212 169.918 92.6439 171.079 92.989C172.299 93.3471 173.467 93.8875 174.621 94.4344C175.3 94.7535 175.776 94.6558 176.357 94.213C178.379 92.6569 180.343 90.9966 182.515 89.6814C186.749 87.1096 191.355 87.7867 194.904 91.2571C197.768 94.0633 200.632 96.8695 203.502 99.6692C208.108 104.168 208.486 108.811 204.67 114.039C203.593 115.51 202.556 117.008 201.441 118.447C200.899 119.144 200.801 119.743 201.193 120.563C201.904 122.041 202.55 123.551 203.111 125.082C203.437 125.974 203.965 126.397 204.879 126.514C206.914 126.774 208.936 127.1 210.972 127.367C216.217 128.064 219.668 131.944 219.701 137.244C219.727 141.704 219.727 146.171 219.701 150.631C219.668 155.716 216.465 159.466 211.435 160.325C209.191 160.71 206.934 161.048 204.676 161.335C203.874 161.439 203.476 161.823 203.208 162.533C202.706 163.854 202.178 165.163 201.604 166.452C201.31 167.116 201.375 167.631 201.825 168.21C203.124 169.857 204.376 171.537 205.635 173.204C208.936 177.579 208.78 182.352 205.042 186.356C201.962 189.651 198.805 192.88 195.556 196.012C191.766 199.671 186.742 199.925 182.45 196.839C180.747 195.615 179.051 194.378 177.387 193.108C176.761 192.633 176.226 192.594 175.508 192.932C174.028 193.629 172.527 194.339 170.974 194.833C169.852 195.192 169.507 195.882 169.376 196.91C169.122 198.896 168.822 200.876 168.535 202.855C167.778 208.09 163.987 211.384 158.684 211.397C154.215 211.41 149.746 211.41 145.277 211.397C140.084 211.378 136.216 207.999 135.511 202.901C135.231 200.876 134.917 198.851 134.65 196.819C134.519 195.823 134.122 195.172 133.071 194.866C131.982 194.554 130.899 194.13 129.914 193.577C128.85 192.984 128.087 193.206 127.213 193.928C125.699 195.172 124.114 196.331 122.548 197.503C118.301 200.667 113.271 200.446 109.462 196.819C106.095 193.616 102.788 190.341 99.5389 187.02C96.427 183.843 95.9117 179.591 98.1037 175.711C99.3823 173.445 101.079 171.459 102.618 169.369C103.179 168.607 103.225 167.989 102.801 167.136C102.096 165.71 101.516 164.219 100.955 162.734C100.641 161.895 100.237 161.4 99.2388 161.296C97.0207 161.061 94.8157 160.697 92.6172 160.319C87.6134 159.453 84.4102 155.69 84.3711 150.598C84.3319 146.092 84.3385 141.58 84.3711 137.075C84.4102 132.257 87.496 128.5 92.2062 127.582C94.483 127.139 96.7924 126.833 99.0953 126.52C100.061 126.39 100.641 125.987 100.968 125.023C101.385 123.773 101.907 122.555 102.488 121.37C102.82 120.693 102.742 120.211 102.292 119.638C100.968 117.952 99.6889 116.24 98.3972 114.534C95.0571 110.132 95.3832 105.138 99.2584 101.186C102.259 98.1261 105.247 95.0595 108.255 92.0123C110.264 89.9744 112.691 88.8675 115.424 88.8415H115.398ZM115.379 97.5857C114.85 97.7029 114.439 98.061 114.054 98.4582C111.243 101.317 108.457 104.201 105.613 107.027C104.712 107.919 104.732 108.622 105.508 109.598C107.765 112.457 109.918 115.4 112.162 118.271C112.919 119.235 112.978 120.062 112.358 121.116C110.271 124.671 108.698 128.441 107.72 132.452C107.42 133.683 106.676 134.223 105.417 134.386C101.848 134.848 98.2994 135.46 94.7309 135.909C93.3804 136.079 92.9694 136.71 92.9825 137.973C93.0216 141.795 92.9955 145.624 92.9955 149.446C92.9955 151.457 93.2369 151.672 95.2006 151.952C98.7169 152.447 102.227 153.007 105.75 153.495C106.859 153.652 107.452 154.218 107.713 155.266C108.764 159.544 110.408 163.581 112.769 167.305C113.526 168.503 113.356 169.447 112.534 170.522C110.492 173.204 108.535 175.945 106.539 178.66C105.195 180.483 105.195 180.522 106.859 182.15C109.533 184.761 112.215 187.365 114.889 189.97C116.22 191.265 116.383 191.285 117.864 190.165C120.663 188.043 123.455 185.926 126.234 183.778C127.272 182.977 128.289 182.925 129.398 183.583C132.83 185.634 136.509 187.085 140.378 188.056C141.793 188.407 142.374 189.202 142.55 190.608C142.961 194.039 143.535 197.451 143.972 200.882C144.149 202.263 144.723 202.822 146.191 202.783C149.974 202.692 153.765 202.751 157.548 202.751C159.721 202.751 159.845 202.634 160.138 200.531C160.615 197.151 161.117 193.779 161.567 190.4C161.737 189.123 162.317 188.375 163.635 188.056C167.778 187.04 171.705 185.445 175.332 183.192C176.631 182.385 177.635 182.508 178.803 183.394C181.602 185.516 184.472 187.528 187.29 189.625C188.269 190.354 189.052 190.321 189.913 189.423C192.692 186.532 195.478 183.654 198.342 180.848C199.366 179.845 199.255 179.083 198.446 178.055C196.274 175.301 194.206 172.468 192.027 169.727C191.172 168.653 191.048 167.741 191.766 166.53C193.742 163.184 195.217 159.609 196.221 155.852C196.756 153.84 197.148 153.593 199.229 153.32C202.615 152.877 205.994 152.362 209.38 151.894C210.489 151.737 211.076 151.236 211.063 150.019C211.024 145.923 211.037 141.821 211.063 137.726C211.063 136.619 210.613 136.092 209.478 135.942C205.909 135.467 202.36 134.835 198.792 134.412C197.259 134.229 196.593 133.513 196.235 132.087C195.191 127.959 193.547 124.059 191.29 120.439C190.618 119.358 190.624 118.492 191.4 117.464C193.619 114.514 195.752 111.506 197.95 108.537C198.577 107.697 198.577 107.033 197.8 106.278C194.858 103.426 191.929 100.561 189.045 97.6508C188.125 96.7198 187.375 96.6937 186.344 97.5076C183.631 99.6627 180.825 101.694 178.105 103.836C176.911 104.774 175.835 104.898 174.484 104.103C171.17 102.143 167.634 100.665 163.877 99.7995C162.324 99.4413 161.704 98.634 161.521 97.1104C161.11 93.7247 160.543 90.3586 160.099 86.9794C159.917 85.5925 159.29 85.0391 157.855 85.0717C154.071 85.1433 150.281 85.0912 146.497 85.0977C144.39 85.0977 144.227 85.254 143.933 87.3765C143.457 90.7557 142.968 94.1284 142.505 97.5076C142.348 98.66 141.852 99.3893 140.619 99.6823C136.379 100.698 132.393 102.384 128.661 104.631C127.48 105.34 126.495 105.308 125.399 104.487C122.587 102.391 119.737 100.34 116.899 98.2824C116.462 97.9634 116.031 97.6118 115.405 97.5792L115.379 97.5857Z" fill="#FAA61A"/>
<path d="M152.069 114.781C168.228 114.788 181.321 127.862 181.308 143.983C181.295 159.948 168 173.119 151.905 173.113C136.027 173.1 122.698 159.915 122.757 144.035C122.816 126.585 137.201 114.488 152.069 114.788V114.781ZM151.886 164.323C163.309 164.336 172.468 155.37 172.514 144.132C172.553 132.641 163.492 123.447 152.088 123.415C140.782 123.382 131.571 132.484 131.532 143.722C131.493 155.175 140.515 164.303 151.886 164.323Z" fill="#52331A"/>
</g>
<defs>
<clipPath id="clip0_11_149">
<rect width="228" height="201" fill="white" transform="translate(38 39)"/>
</clipPath>
</defs>
</svg>
