<svg width="1878" height="34" viewBox="0 0 1878 34" fill="none" xmlns="http://www.w3.org/2000/svg">
<path d="M1861.38 0C1870.56 0 1878 7.43925 1878 16.6265C1878 25.8138 1870.56 33.253 1861.38 33.253C1852.2 33.253 1844.76 25.8138 1844.76 16.6265C1844.76 7.43925 1852.2 0 1861.38 0Z" fill="#D17A11"/>
<path d="M16.6205 0C7.43656 0 0 7.43925 0 16.6265C0 25.8138 7.43656 33.253 16.6205 33.253C25.8045 33.253 33.241 25.8138 33.241 16.6265C33.241 7.43925 25.8045 0 16.6205 0Z" fill="#D17A11"/>
<path d="M1808.67 1.30078C1817.13 1.30078 1823.99 8.17091 1823.99 16.6265C1823.99 25.082 1817.13 31.9521 1808.67 31.9521C1800.22 31.9521 1793.35 25.082 1793.35 16.6265C1793.35 8.17091 1800.22 1.30078 1808.67 1.30078Z" fill="#D17A11"/>
<path d="M69.3267 1.30078C60.8742 1.30078 54.0066 8.17091 54.0066 16.6265C54.0066 25.082 60.8742 31.9521 69.3267 31.9521C77.7792 31.9521 84.6469 25.082 84.6469 16.6265C84.6469 8.17091 77.7792 1.30078 69.3267 1.30078Z" fill="#D17A11"/>
<path d="M1755.97 2.64258C1763.69 2.64258 1769.95 8.90293 1769.95 16.6267C1769.95 24.3506 1763.69 30.6109 1755.97 30.6109C1748.25 30.6109 1741.99 24.3506 1741.99 16.6267C1741.99 8.90293 1748.25 2.64258 1755.97 2.64258Z" fill="#D17A11"/>
<path d="M122.033 2.64258C114.312 2.64258 108.054 8.90293 108.054 16.6267C108.054 24.3506 114.312 30.6109 122.033 30.6109C129.754 30.6109 136.012 24.3506 136.012 16.6267C136.012 8.90293 129.754 2.64258 122.033 2.64258Z" fill="#D17A11"/>
<path d="M1703.26 29.31C1696.26 29.31 1690.58 23.6315 1690.58 16.6267C1690.58 9.62187 1696.26 3.94336 1703.26 3.94336C1710.26 3.94336 1715.94 9.62187 1715.94 16.6267C1715.94 23.6315 1710.26 29.31 1703.26 29.31Z" fill="#D17A11"/>
<path d="M174.739 29.31C181.741 29.31 187.418 23.6315 187.418 16.6267C187.418 9.62187 181.741 3.94336 174.739 3.94336C167.737 3.94336 162.06 9.62187 162.06 16.6267C162.06 23.6315 167.737 29.31 174.739 29.31Z" fill="#D17A11"/>
<path d="M1650.55 5.24414C1656.81 5.24414 1661.93 10.3256 1661.93 16.6266C1661.93 22.9276 1656.85 28.0091 1650.55 28.0091C1644.26 28.0091 1639.18 22.9276 1639.18 16.6266C1639.18 10.3256 1644.26 5.24414 1650.55 5.24414Z" fill="#D17A11"/>
<path d="M227.445 5.24414C221.187 5.24414 216.067 10.3256 216.067 16.6266C216.067 22.9276 221.146 28.0091 227.445 28.0091C233.744 28.0091 238.823 22.9276 238.823 16.6266C238.823 10.3256 233.744 5.24414 227.445 5.24414Z" fill="#D17A11"/>
<path d="M1597.85 6.54492C1603.42 6.54492 1607.89 11.0573 1607.89 16.5859C1607.89 22.1145 1603.38 26.6268 1597.85 26.6268C1592.32 26.6268 1587.81 22.1145 1587.81 16.5859C1587.81 11.0573 1592.32 6.54492 1597.85 6.54492Z" fill="#D17A11"/>
<path d="M280.151 6.54492C274.584 6.54492 270.114 11.0573 270.114 16.5859C270.114 22.1145 274.624 26.6268 280.151 26.6268C285.678 26.6268 290.188 22.1145 290.188 16.5859C290.188 11.0573 285.678 6.54492 280.151 6.54492Z" fill="#D17A11"/>
<path d="M1545.14 7.88623C1549.98 7.88623 1553.88 11.7888 1553.88 16.6263C1553.88 21.4639 1549.98 25.3664 1545.14 25.3664C1540.31 25.3664 1536.41 21.4639 1536.41 16.6263C1536.41 11.7888 1540.31 7.88623 1545.14 7.88623Z" fill="#D17A11"/>
<path d="M332.857 7.88623C328.022 7.88623 324.12 11.7888 324.12 16.6263C324.12 21.4639 328.022 25.3664 332.857 25.3664C337.693 25.3664 341.594 21.4639 341.594 16.6263C341.594 11.7888 337.693 7.88623 332.857 7.88623Z" fill="#D17A11"/>
<path d="M1492.44 24.066C1488.33 24.066 1485 20.7326 1485 16.6268C1485 12.5209 1488.33 9.1875 1492.44 9.1875C1496.54 9.1875 1499.87 12.5209 1499.87 16.6268C1499.87 20.7326 1496.54 24.066 1492.44 24.066Z" fill="#D17A11"/>
<path d="M385.563 24.066C389.668 24.066 393 20.7326 393 16.6268C393 12.5209 389.668 9.1875 385.563 9.1875C381.459 9.1875 378.127 12.5209 378.127 16.6268C378.127 20.7326 381.459 24.066 385.563 24.066Z" fill="#D17A11"/>
</svg>
