<svg width="1920" height="1310" viewBox="0 0 1920 1310" fill="none" xmlns="http://www.w3.org/2000/svg">
<path d="M1897.01 239.074C1888.29 239.074 1881.21 246.215 1881.21 255C1881.21 263.785 1888.3 270.926 1897.01 270.926C1905.71 270.926 1912.8 263.785 1912.8 255C1912.8 246.215 1905.71 239.074 1897.01 239.074ZM1897.01 267.572C1890.13 267.572 1884.53 261.931 1884.53 255C1884.53 248.069 1890.13 242.428 1897.01 242.428C1903.89 242.428 1909.48 248.069 1909.48 255C1909.48 261.931 1903.89 267.572 1897.01 267.572Z" fill="#BD8031"/>
<path d="M1879.09 224.95C1871.12 229.776 1865.5 237.443 1863.25 246.531C1861.01 255.618 1862.41 265.047 1867.19 273.07C1873.72 283.998 1885.24 290.061 1897.06 290.061C1903.15 290.061 1909.33 288.443 1914.93 285.063C1922.9 280.237 1928.52 272.583 1930.76 263.483C1933.01 254.395 1931.6 244.966 1926.82 236.944C1916.94 220.373 1895.54 214.994 1879.09 224.963V224.95ZM1926.89 262.496C1924.91 270.545 1919.92 277.317 1912.88 281.592C1898.33 290.416 1879.37 285.655 1870.62 270.979C1866.38 263.877 1865.14 255.526 1867.13 247.491C1869.11 239.455 1874.1 232.656 1881.13 228.395C1885.99 225.449 1891.43 223.95 1896.94 223.95C1899.44 223.95 1901.96 224.253 1904.44 224.884C1912.42 226.883 1919.14 231.907 1923.38 239.008C1927.62 246.11 1928.86 254.461 1926.87 262.509L1926.89 262.496Z" fill="#BD8031"/>
<path d="M1881.78 196.635C1866.31 200.738 1853.35 210.654 1845.29 224.581C1837.23 238.508 1835.04 254.75 1839.11 270.347C1846.17 297.399 1870.49 315.35 1897.02 315.35C1902.05 315.35 1907.16 314.706 1912.24 313.351C1927.7 309.248 1940.66 299.332 1948.72 285.405C1956.78 271.478 1958.97 255.237 1954.91 239.639C1946.5 207.459 1913.71 188.153 1881.76 196.635H1881.78ZM1911.34 309.932C1881.29 317.902 1850.4 299.74 1842.5 269.44C1838.66 254.763 1840.74 239.468 1848.32 226.357C1855.91 213.245 1868.11 203.908 1882.67 200.055C1887.46 198.779 1892.27 198.187 1896.99 198.187C1921.98 198.187 1944.86 215.086 1951.52 240.547C1959.42 270.834 1941.4 301.963 1911.34 309.932Z" fill="#BD8031"/>
<path d="M1948.56 184.655C1929.92 170.78 1907.02 165.046 1884.11 168.518C1836.8 175.686 1804.09 220.321 1811.2 268.006C1817.66 311.313 1854.76 342.481 1896.95 342.468C1901.22 342.468 1905.55 342.152 1909.91 341.495C1957.23 334.328 1989.93 289.693 1982.83 242.007C1979.39 218.9 1967.22 198.542 1948.58 184.655H1948.56ZM1909.45 338.47C1863.78 345.401 1821.06 313.575 1814.2 267.546C1807.34 221.53 1838.9 178.461 1884.56 171.543C1888.77 170.899 1892.99 170.583 1897.18 170.583C1914.95 170.583 1932.19 176.278 1946.75 187.114C1964.74 200.515 1976.49 220.163 1979.81 242.454C1986.68 288.47 1955.1 331.539 1909.44 338.457L1909.45 338.47Z" fill="#BD8031"/>
<path d="M1886.32 140.414C1823.63 146.346 1777.43 202.58 1783.31 265.758C1786.16 296.36 1800.67 324.017 1824.15 343.625C1844.83 360.88 1870.28 370.085 1896.78 370.085C1900.39 370.085 1904.03 369.915 1907.67 369.573C1938.03 366.692 1965.47 352.082 1984.93 328.396C2004.39 304.724 2013.53 274.832 2010.68 244.229C2004.79 181.051 1949 134.483 1886.32 140.414ZM1982.97 326.766C1963.95 349.912 1937.13 364.207 1907.44 367.021C1846.16 372.821 1791.62 327.292 1785.86 265.521C1780.11 203.75 1825.27 148.779 1886.56 142.979C1890.09 142.65 1893.59 142.479 1897.09 142.479C1953.97 142.479 2002.72 186.272 2008.14 244.479C2010.93 274.398 2002 303.62 1982.97 326.766Z" fill="#BD8031"/>
<path d="M1991.07 148.055C1962.73 122.726 1926.31 110.048 1888.49 112.337C1850.67 114.625 1816.01 131.616 1790.89 160.194C1765.76 188.758 1753.17 225.476 1755.45 263.588C1757.72 301.7 1774.58 336.629 1802.92 361.958C1829.09 385.341 1862.14 397.939 1896.81 397.939C1899.7 397.939 1902.6 397.847 1905.51 397.676C1983.57 392.942 2043.25 325.095 2038.55 246.439C2036.28 208.327 2019.42 173.397 1991.07 148.068V148.055ZM2001.56 348.425C1976.8 376.569 1942.64 393.323 1905.4 395.572C1868.15 397.847 1832.24 385.327 1804.32 360.38C1776.39 335.419 1759.77 301.003 1757.54 263.443C1755.29 225.897 1767.7 189.705 1792.46 161.561C1817.22 133.418 1851.38 116.663 1888.63 114.415C1925.89 112.153 1961.78 124.659 1989.71 149.62C2017.63 174.581 2034.26 208.997 2036.49 246.557C2038.73 284.103 2026.33 320.295 2001.56 348.439V348.425Z" fill="#BD8031"/>
<path d="M1890.64 84.2461C1797.23 87.7837 1724.09 167.256 1727.59 261.418C1731.02 353.397 1806.35 425.872 1896.93 425.872C1899.07 425.872 1901.22 425.833 1903.37 425.754C1948.63 424.044 1990.51 404.673 2021.3 371.203C2052.1 337.747 2068.12 294.19 2066.42 248.582C2062.92 154.434 1984.12 80.6953 1890.64 84.2461ZM2020.13 370.112C1989.62 403.266 1948.13 422.453 1903.31 424.15C1901.17 424.229 1899.04 424.268 1896.93 424.268C1807.22 424.268 1732.58 352.463 1729.18 261.352C1725.7 168.084 1798.16 89.3487 1890.7 85.8505C1892.84 85.7716 1894.97 85.7322 1897.09 85.7322C1986.8 85.7322 2061.43 157.537 2064.83 248.648C2066.51 293.822 2050.64 336.971 2020.14 370.112H2020.13Z" fill="#BD8031"/>
<path d="M2094.28 250.726C2093.15 197.622 2071.57 148.134 2033.51 111.377C1995.45 74.6326 1945.48 54.998 1892.77 56.1553C1783.99 58.5094 1697.4 149.62 1699.72 259.261C1700.85 312.365 1722.43 361.853 1760.49 398.61C1797.5 434.342 1845.79 453.871 1896.88 453.871C1898.32 453.871 1899.78 453.858 1901.22 453.819C2009.99 451.465 2096.59 360.354 2094.27 250.713L2094.28 250.726ZM1901.22 452.714C1848.8 453.832 1799.13 434.342 1761.28 397.808C1723.43 361.261 1701.98 312.063 1700.85 259.248C1698.52 150.225 1784.64 59.6272 1892.81 57.2863C1894.25 57.26 1895.69 57.2337 1897.12 57.2337C1947.92 57.2337 1995.95 76.6579 2032.75 112.192C2070.6 148.739 2092.05 197.937 2093.18 250.752C2095.5 359.775 2009.39 450.373 1901.22 452.714Z" fill="#BD8031"/>
<path d="M2054.7 93.0309C2012.29 51.0789 1956.39 28.0645 1897.06 28.0645C1896.34 28.0645 1895.6 28.0645 1894.88 28.0645C1834.75 28.63 1778.43 52.7754 1736.3 96.0294C1694.18 139.297 1671.28 196.491 1671.85 257.104C1672.41 317.718 1696.36 374.478 1739.28 416.93C1781.68 458.869 1837.59 481.896 1896.91 481.896C1897.64 481.896 1898.36 481.896 1899.09 481.896C1959.22 481.331 2015.55 457.185 2057.68 413.931C2099.8 370.664 2122.69 313.47 2122.13 252.856C2121.56 192.243 2097.62 135.483 2054.68 93.0309H2054.7ZM2057.24 413.497C2015.25 456.633 1959.08 480.713 1899.11 481.278C1898.39 481.278 1897.68 481.278 1896.97 481.278C1774.15 481.278 1673.65 381.159 1672.49 257.117C1671.93 196.675 1694.74 139.625 1736.76 96.4897C1778.75 53.354 1834.92 29.2744 1894.89 28.7089C1895.61 28.7089 1896.34 28.7089 1897.06 28.7089C1956.22 28.7089 2011.98 51.6707 2054.26 93.4912C2097.06 135.825 2120.95 192.427 2121.51 252.87C2122.07 313.312 2099.26 370.362 2057.24 413.497Z" fill="#BD8031"/>
<path d="M-14.5983 1039.52C-30.1096 1027.98 -49.16 1023.22 -68.2214 1026.1C-107.589 1032.06 -134.8 1069.17 -128.89 1108.81C-123.516 1144.82 -92.6462 1170.73 -57.5383 1170.72C-53.9882 1170.72 -50.3834 1170.46 -46.7569 1169.91C-7.38881 1163.95 19.8214 1126.84 13.9119 1087.2C11.0499 1067.99 0.923935 1051.06 -14.5873 1039.52H-14.5983ZM-47.1392 1167.39C-85.1418 1173.16 -120.687 1146.7 -126.389 1108.43C-132.102 1070.17 -105.842 1034.37 -67.85 1028.62C-64.3436 1028.08 -60.8372 1027.82 -57.3526 1027.82C-42.5623 1027.82 -28.2198 1032.55 -16.1057 1041.56C-1.14059 1052.7 8.63586 1069.04 11.3995 1087.57C17.1124 1125.83 -9.15841 1161.63 -47.1501 1167.38L-47.1392 1167.39Z" fill="#BD8031"/>
<path d="M-66.3862 1002.74C-118.546 1007.67 -156.985 1054.42 -152.091 1106.94C-149.721 1132.39 -137.651 1155.38 -118.109 1171.68C-100.904 1186.03 -79.7347 1193.68 -57.6803 1193.68C-54.6763 1193.68 -51.6505 1193.54 -48.6248 1193.25C-23.3589 1190.86 -0.5289 1178.71 15.6596 1159.02C31.8481 1139.34 39.4509 1114.49 37.0805 1089.05C32.1868 1036.52 -14.2378 997.806 -66.3862 1002.74ZM14.032 1157.66C-1.79601 1176.91 -24.1126 1188.79 -48.8105 1191.13C-99.801 1195.95 -145.177 1158.1 -149.972 1106.75C-154.757 1055.39 -117.18 1009.69 -66.1896 1004.87C-63.2512 1004.6 -60.3347 1004.45 -57.429 1004.45C-10.0978 1004.45 30.4609 1040.86 34.9722 1089.25C37.288 1114.13 29.8601 1138.42 14.032 1157.66Z" fill="#BD8031"/>
<path d="M20.7718 1009.09C-2.8119 988.031 -33.1135 977.491 -64.5839 979.394C-96.0434 981.296 -124.881 995.422 -145.789 1019.18C-166.696 1042.93 -177.172 1073.45 -175.271 1105.14C-173.381 1136.82 -159.356 1165.86 -135.772 1186.92C-114.001 1206.36 -86.5072 1216.84 -57.6584 1216.84C-55.2553 1216.84 -52.8412 1216.76 -50.4162 1216.62C14.5236 1212.68 64.1815 1156.28 60.2709 1090.88C58.3812 1059.2 44.3555 1030.16 20.7718 1009.1V1009.09ZM29.4996 1175.67C8.89804 1199.07 -19.5247 1213 -50.5145 1214.87C-81.5043 1216.76 -111.38 1206.35 -134.614 1185.61C-157.848 1164.86 -171.677 1136.25 -173.534 1105.02C-175.402 1073.8 -165.079 1043.72 -144.478 1020.32C-123.876 996.92 -95.4535 982.991 -64.4637 981.121C-33.463 979.241 -3.59836 989.638 19.6358 1010.39C42.8699 1031.14 56.699 1059.75 58.556 1090.98C60.4239 1122.2 50.1012 1152.28 29.4996 1175.68V1175.67Z" fill="#BD8031"/>
<path d="M-62.7924 956.04C-140.513 958.981 -201.367 1025.05 -198.451 1103.34C-195.6 1179.8 -132.921 1240.06 -57.5601 1240.06C-55.7796 1240.06 -53.9881 1240.03 -52.1967 1239.96C-14.5436 1238.54 20.3021 1222.43 45.9176 1194.61C71.5439 1166.79 84.8705 1130.58 83.4614 1092.66C80.5449 1014.39 14.9824 953.088 -62.7924 956.04ZM44.9454 1193.7C19.5593 1221.26 -14.9587 1237.22 -52.2513 1238.63C-54.0318 1238.69 -55.8015 1238.72 -57.5601 1238.72C-132.2 1238.72 -194.3 1179.03 -197.129 1103.28C-200.024 1025.74 -139.737 960.282 -62.7378 957.374C-60.9573 957.308 -59.1877 957.275 -57.429 957.275C17.2108 957.275 79.3105 1016.97 82.1397 1092.72C83.5379 1130.28 70.3314 1166.15 44.9563 1193.7H44.9454Z" fill="#BD8031"/>
<path d="M106.641 1094.45C105.702 1050.3 87.7434 1009.15 56.0764 978.596C24.4094 948.048 -17.1652 931.724 -61.0228 932.686C-151.523 934.643 -223.574 1010.39 -221.641 1101.54C-220.702 1145.69 -202.743 1186.83 -171.076 1217.39C-140.283 1247.1 -100.107 1263.34 -57.6038 1263.34C-56.4022 1263.34 -55.1897 1263.33 -53.9881 1263.29C36.5125 1261.34 108.564 1185.59 106.63 1094.44L106.641 1094.45ZM-53.9881 1262.37C-97.6054 1263.3 -138.929 1247.1 -170.421 1216.73C-201.913 1186.34 -219.762 1145.44 -220.702 1101.53C-222.635 1010.89 -150.988 935.572 -60.99 933.626C-59.7885 933.604 -58.5869 933.583 -57.3962 933.583C-15.1335 933.583 24.8245 949.731 55.4428 979.274C86.9351 1009.66 104.784 1050.56 105.723 1094.47C107.657 1185.11 36.01 1260.43 -53.9881 1262.37Z" fill="#BD8031"/>
<path d="M73.7068 963.343C38.4242 928.466 -8.08783 909.332 -57.4508 909.332C-58.0516 909.332 -58.6633 909.332 -59.2641 909.332C-109.293 909.802 -156.155 929.876 -191.208 965.836C-226.251 1001.81 -245.301 1049.36 -244.831 1099.75C-244.362 1150.14 -224.437 1197.33 -188.729 1232.62C-153.446 1267.49 -106.934 1286.64 -57.571 1286.64C-56.9702 1286.64 -56.3694 1286.64 -55.7577 1286.64C-5.72836 1286.17 41.1331 1266.09 76.1865 1230.13C111.229 1194.16 130.279 1146.61 129.81 1096.22C129.34 1045.83 109.416 998.637 73.6959 963.343H73.7068ZM75.826 1229.77C40.8819 1265.63 -5.84853 1285.65 -55.7468 1286.12C-56.3475 1286.12 -56.9374 1286.12 -57.5273 1286.12C-159.716 1286.12 -243.335 1202.88 -244.296 1099.76C-244.766 1049.51 -225.781 1002.08 -190.826 966.219C-155.882 930.357 -109.151 910.338 -59.2532 909.868C-58.6524 909.868 -58.0516 909.868 -57.4508 909.868C-8.22983 909.868 38.162 928.958 73.3463 963.726C108.957 998.921 128.826 1045.98 129.296 1096.23C129.766 1146.48 110.781 1193.91 75.826 1229.77Z" fill="#BD8031"/>
<path d="M-40.405 285.017C-47.0355 289.03 -51.7107 295.404 -53.5786 302.959C-55.4465 310.514 -54.2777 318.353 -50.3016 325.023C-44.8727 334.108 -35.2819 339.149 -25.4508 339.149C-20.3823 339.149 -15.2374 337.804 -10.584 334.994C-3.95348 330.981 0.721752 324.618 2.58966 317.052C4.45757 309.497 3.28876 301.658 -0.687374 294.988C-8.91272 281.212 -26.7179 276.74 -40.405 285.028V285.017ZM-0.632751 316.232C-2.28219 322.923 -6.43309 328.554 -12.2881 332.107C-24.3912 339.444 -40.1647 335.486 -47.4506 323.284C-50.9789 317.38 -52.0057 310.437 -50.3562 303.757C-48.7068 297.077 -44.5559 291.424 -38.7009 287.882C-34.6592 285.432 -30.1369 284.186 -25.5491 284.186C-23.4736 284.186 -21.3764 284.438 -19.3118 284.962C-12.6704 286.624 -7.07758 290.801 -3.5493 296.705C-0.0210381 302.609 1.00577 309.552 -0.643669 316.243L-0.632751 316.232Z" fill="#BD8031"/>
<path d="M-38.1657 261.477C-51.0336 264.888 -61.815 273.132 -68.522 284.711C-75.2289 296.289 -77.0532 309.792 -73.6669 322.759C-67.7901 345.249 -47.5599 360.174 -25.4836 360.174C-21.3 360.174 -17.0508 359.638 -12.8234 358.512C0.0444107 355.101 10.8259 346.857 17.5328 335.278C24.2398 323.7 26.064 310.197 22.6778 297.23C15.6868 270.475 -11.6 254.425 -38.1767 261.477H-38.1657ZM-13.5662 355.669C-38.5699 362.295 -64.2727 347.196 -70.8487 322.005C-74.0383 309.803 -72.3124 297.088 -65.9986 286.187C-59.6849 275.286 -49.5371 267.523 -37.423 264.32C-33.4359 263.259 -29.4379 262.767 -25.5055 262.767C-4.7182 262.767 14.3213 276.817 19.8595 297.984C26.4354 323.164 11.4376 349.043 -13.5662 355.669Z" fill="#BD8031"/>
<path d="M17.4017 251.517C1.89045 239.982 -17.16 235.215 -36.2214 238.102C-75.5895 244.06 -102.8 281.168 -96.8901 320.813C-91.5158 356.817 -60.6462 382.729 -25.5383 382.719C-21.9882 382.719 -18.3834 382.456 -14.7569 381.909C24.6112 375.951 51.8214 338.843 45.9119 299.198C43.0499 279.988 32.9239 263.063 17.4127 251.517H17.4017ZM-15.1392 379.395C-53.1418 385.157 -88.6866 358.698 -94.3887 320.431C-100.102 282.174 -73.8417 246.367 -35.85 240.616C-32.3436 240.081 -28.8372 239.818 -25.3526 239.818C-10.5623 239.818 3.78021 244.552 15.8943 253.561C30.8594 264.703 40.6359 281.037 43.3995 299.57C49.1124 337.826 22.8416 373.633 -15.1501 379.384L-15.1392 379.395Z" fill="#BD8031"/>
<path d="M-34.3862 214.737C-86.5456 219.668 -124.985 266.419 -120.091 318.943C-117.721 344.386 -105.651 367.379 -86.1087 383.681C-68.9043 398.025 -47.7347 405.679 -25.6803 405.679C-22.6763 405.679 -19.6505 405.537 -16.6248 405.252C8.64114 402.858 31.4711 390.711 47.6596 371.02C63.8481 351.339 71.4509 326.488 69.0805 301.045C64.1868 248.521 17.7622 209.806 -34.3862 214.737ZM46.032 369.664C30.204 388.907 7.88742 400.791 -16.8105 403.131C-67.801 407.953 -113.177 370.101 -117.972 318.747C-122.757 267.392 -85.1802 221.69 -34.1896 216.869C-31.2512 216.595 -28.3347 216.453 -25.429 216.453C21.9022 216.453 62.4609 252.862 66.9722 301.253C69.288 326.127 61.8601 350.421 46.032 369.664Z" fill="#BD8031"/>
<path d="M52.7718 221.089C29.1881 200.031 -1.11349 189.491 -32.5839 191.394C-64.0434 193.296 -92.8812 207.422 -113.789 231.181C-134.696 254.928 -145.172 285.454 -143.271 317.14C-141.381 348.825 -127.356 377.864 -103.772 398.922C-82.0015 418.362 -54.5072 428.836 -25.6584 428.836C-23.2553 428.836 -20.8412 428.76 -18.4162 428.617C46.5236 424.681 96.1815 368.276 92.2709 302.882C90.3812 271.197 76.3555 242.158 52.7718 221.1V221.089ZM61.4996 387.672C40.898 411.069 12.4753 424.998 -18.5145 426.868C-49.5043 428.76 -79.3799 418.351 -102.614 397.61C-125.848 376.858 -139.677 348.245 -141.534 317.019C-143.402 285.804 -133.079 255.715 -112.478 232.318C-91.8763 208.92 -63.4535 194.991 -32.4637 193.121C-1.46304 191.241 28.4016 201.638 51.6358 222.39C74.8699 243.142 88.699 271.755 90.556 302.981C92.4239 334.196 82.1012 364.285 61.4996 387.682V387.672Z" fill="#BD8031"/>
<path d="M-30.7924 168.04C-108.513 170.981 -169.367 237.052 -166.451 315.336C-163.6 391.804 -100.921 452.059 -25.5601 452.059C-23.7796 452.059 -21.9881 452.026 -20.1967 451.96C17.4564 450.539 52.3021 434.434 77.9176 406.608C103.544 378.793 116.871 342.582 115.461 304.664C112.545 226.392 46.9824 165.088 -30.7924 168.04ZM76.9454 405.701C51.5593 433.264 17.0413 449.216 -20.2513 450.626C-22.0318 450.692 -23.8015 450.725 -25.5601 450.725C-100.2 450.725 -162.3 391.028 -165.129 315.281C-168.024 237.741 -107.737 172.282 -30.7378 169.374C-28.9573 169.308 -27.1877 169.275 -25.429 169.275C49.2108 169.275 111.311 228.972 114.14 304.719C115.538 342.276 102.331 378.148 76.9563 405.701H76.9454Z" fill="#BD8031"/>
<path d="M138.641 306.447C137.702 262.297 119.743 221.155 88.0764 190.596C56.4094 160.048 14.8348 143.724 -29.0228 144.686C-119.523 146.643 -191.574 222.39 -189.641 313.543C-188.702 357.692 -170.743 398.835 -139.076 429.394C-108.283 459.1 -68.1068 475.336 -25.6038 475.336C-24.4022 475.336 -23.1897 475.325 -21.9881 475.292C68.5125 473.335 140.564 397.588 138.63 306.436L138.641 306.447ZM-21.9881 474.374C-65.6054 475.303 -106.929 459.1 -138.421 428.727C-169.913 398.343 -187.762 357.44 -188.702 313.532C-190.635 222.893 -118.988 147.572 -28.99 145.626C-27.7885 145.604 -26.5869 145.583 -25.3962 145.583C16.8665 145.583 56.8245 161.731 87.4428 191.274C118.935 221.658 136.784 262.56 137.723 306.469C139.657 397.107 68.01 472.428 -21.9881 474.374Z" fill="#BD8031"/>
<path d="M105.707 175.343C70.4242 140.466 23.9122 121.332 -25.4508 121.332C-26.0516 121.332 -26.6633 121.332 -27.2641 121.332C-77.2934 121.802 -124.155 141.876 -159.208 177.836C-194.251 213.807 -213.301 261.357 -212.831 311.749C-212.362 362.142 -192.437 409.331 -156.729 444.624C-121.446 479.491 -74.934 498.635 -25.571 498.635C-24.9702 498.635 -24.3694 498.635 -23.7577 498.635C26.2716 498.165 73.1331 478.091 108.186 442.131C143.229 406.16 162.279 358.61 161.81 308.218C161.34 257.826 141.416 210.637 105.696 175.343H105.707ZM107.826 441.77C72.8819 477.632 26.1515 497.651 -23.7468 498.121C-24.3475 498.121 -24.9374 498.121 -25.5273 498.121C-127.716 498.121 -211.335 414.885 -212.296 311.76C-212.766 261.51 -193.781 214.081 -158.826 178.219C-123.882 142.357 -77.1514 122.338 -27.2532 121.868C-26.6524 121.868 -26.0516 121.868 -25.4508 121.868C23.7702 121.868 70.162 140.958 105.346 175.726C140.957 210.921 160.826 257.979 161.296 308.229C161.766 358.479 142.781 405.908 107.826 441.77Z" fill="#BD8031"/>
<path d="M1956.83 1043.48C1943.97 1046.89 1933.19 1055.13 1926.48 1066.71C1919.77 1078.29 1917.95 1091.79 1921.33 1104.76C1927.21 1127.25 1947.44 1142.17 1969.52 1142.17C1973.7 1142.17 1977.95 1141.64 1982.18 1140.51C1995.04 1137.1 2005.83 1128.86 2012.53 1117.28C2019.24 1105.7 2021.06 1092.2 2017.68 1079.23C2010.69 1052.48 1983.4 1036.43 1956.82 1043.48H1956.83ZM1981.43 1137.67C1956.43 1144.29 1930.73 1129.2 1924.15 1104C1920.96 1091.8 1922.69 1079.09 1929 1068.19C1935.32 1057.29 1945.46 1049.52 1957.58 1046.32C1961.56 1045.26 1965.56 1044.77 1969.49 1044.77C1990.28 1044.77 2009.32 1058.82 2014.86 1079.98C2021.44 1105.16 2006.44 1131.04 1981.43 1137.67Z" fill="#BD8031"/>
<path d="M2012.4 1033.52C1996.89 1021.98 1977.84 1017.22 1958.78 1020.1C1919.41 1026.06 1892.2 1063.17 1898.11 1102.81C1903.48 1138.82 1934.35 1164.73 1969.46 1164.72C1973.01 1164.72 1976.62 1164.46 1980.24 1163.91C2019.61 1157.95 2046.82 1120.84 2040.91 1081.2C2038.05 1061.99 2027.92 1045.06 2012.41 1033.52H2012.4ZM1979.86 1161.39C1941.86 1167.16 1906.31 1140.7 1900.61 1102.43C1894.9 1064.17 1921.16 1028.37 1959.15 1022.62C1962.66 1022.08 1966.16 1021.82 1969.65 1021.82C1984.44 1021.82 1998.78 1026.55 2010.89 1035.56C2025.86 1046.7 2035.64 1063.04 2038.4 1081.57C2044.11 1119.83 2017.84 1155.63 1979.85 1161.38L1979.86 1161.39Z" fill="#BD8031"/>
<path d="M1960.61 996.737C1908.45 1001.67 1870.01 1048.42 1874.91 1100.94C1877.28 1126.39 1889.35 1149.38 1908.89 1165.68C1926.1 1180.03 1947.27 1187.68 1969.32 1187.68C1972.32 1187.68 1975.35 1187.54 1978.38 1187.25C2003.64 1184.86 2026.47 1172.71 2042.66 1153.02C2058.85 1133.34 2066.45 1108.49 2064.08 1083.05C2059.19 1030.52 2012.76 991.806 1960.61 996.737ZM2041.03 1151.66C2025.2 1170.91 2002.89 1182.79 1978.19 1185.13C1927.2 1189.95 1881.82 1152.1 1877.03 1100.75C1872.24 1049.39 1909.82 1003.69 1960.81 998.869C1963.75 998.595 1966.67 998.453 1969.57 998.453C2016.9 998.453 2057.46 1034.86 2061.97 1083.25C2064.29 1108.13 2056.86 1132.42 2041.03 1151.66Z" fill="#BD8031"/>
<path d="M2047.77 1003.09C2024.19 982.031 1993.89 971.491 1962.42 973.394C1930.96 975.296 1902.12 989.422 1881.21 1013.18C1860.3 1036.93 1849.83 1067.45 1851.73 1099.14C1853.62 1130.82 1867.64 1159.86 1891.23 1180.92C1913 1200.36 1940.49 1210.84 1969.34 1210.84C1971.74 1210.84 1974.16 1210.76 1976.58 1210.62C2041.52 1206.68 2091.18 1150.28 2087.27 1084.88C2085.38 1053.2 2071.36 1024.16 2047.77 1003.1V1003.09ZM2056.5 1169.67C2035.9 1193.07 2007.48 1207 1976.49 1208.87C1945.5 1210.76 1915.62 1200.35 1892.39 1179.61C1869.15 1158.86 1855.32 1130.25 1853.47 1099.02C1851.6 1067.8 1861.92 1037.72 1882.52 1014.32C1903.12 990.92 1931.55 976.991 1962.54 975.121C1993.54 973.241 2023.4 983.638 2046.64 1004.39C2069.87 1025.14 2083.7 1053.75 2085.56 1084.98C2087.42 1116.2 2077.1 1146.28 2056.5 1169.68V1169.67Z" fill="#BD8031"/>
<path d="M1964.21 950.04C1886.49 952.981 1825.63 1019.05 1828.55 1097.34C1831.4 1173.8 1894.08 1234.06 1969.44 1234.06C1971.22 1234.06 1973.01 1234.03 1974.8 1233.96C2012.46 1232.54 2047.3 1216.43 2072.92 1188.61C2098.54 1160.79 2111.87 1124.58 2110.46 1086.66C2107.54 1008.39 2041.98 947.088 1964.21 950.04ZM2071.95 1187.7C2046.56 1215.26 2012.04 1231.22 1974.75 1232.63C1972.97 1232.69 1971.2 1232.72 1969.44 1232.72C1894.8 1232.72 1832.7 1173.03 1829.87 1097.28C1826.98 1019.74 1887.26 954.282 1964.26 951.374C1966.04 951.308 1967.81 951.275 1969.57 951.275C2044.21 951.275 2106.31 1010.97 2109.14 1086.72C2110.54 1124.28 2097.33 1160.15 2071.96 1187.7H2071.95Z" fill="#BD8031"/>
<path d="M2133.64 1088.45C2132.7 1044.3 2114.74 1003.15 2083.08 972.596C2051.41 942.048 2009.83 925.724 1965.98 926.686C1875.48 928.643 1803.43 1004.39 1805.36 1095.54C1806.3 1139.69 1824.26 1180.83 1855.92 1211.39C1886.72 1241.1 1926.89 1257.34 1969.4 1257.34C1970.6 1257.34 1971.81 1257.33 1973.01 1257.29C2063.51 1255.34 2135.56 1179.59 2133.63 1088.44L2133.64 1088.45ZM1973.01 1256.37C1929.39 1257.3 1888.07 1241.1 1856.58 1210.73C1825.09 1180.34 1807.24 1139.44 1806.3 1095.53C1804.37 1004.89 1876.01 929.572 1966.01 927.626C1967.21 927.604 1968.41 927.583 1969.6 927.583C2011.87 927.583 2051.82 943.731 2082.44 973.274C2113.94 1003.66 2131.78 1044.56 2132.72 1088.47C2134.66 1179.11 2063.01 1254.43 1973.01 1256.37Z" fill="#BD8031"/>
<path d="M2100.71 957.343C2065.42 922.466 2018.91 903.332 1969.55 903.332C1968.95 903.332 1968.34 903.332 1967.74 903.332C1917.71 903.802 1870.85 923.876 1835.79 959.836C1800.75 995.807 1781.7 1043.36 1782.17 1093.75C1782.64 1144.14 1802.56 1191.33 1838.27 1226.62C1873.55 1261.49 1920.07 1280.64 1969.43 1280.64C1970.03 1280.64 1970.63 1280.64 1971.24 1280.64C2021.27 1280.17 2068.13 1260.09 2103.19 1224.13C2138.23 1188.16 2157.28 1140.61 2156.81 1090.22C2156.34 1039.83 2136.42 992.637 2100.7 957.343H2100.71ZM2102.83 1223.77C2067.88 1259.63 2021.15 1279.65 1971.25 1280.12C1970.65 1280.12 1970.06 1280.12 1969.47 1280.12C1867.28 1280.12 1783.67 1196.88 1782.7 1093.76C1782.23 1043.51 1801.22 996.081 1836.17 960.219C1871.12 924.357 1917.85 904.338 1967.75 903.868C1968.35 903.868 1968.95 903.868 1969.55 903.868C2018.77 903.868 2065.16 922.958 2100.35 957.726C2135.96 992.921 2155.83 1039.98 2156.3 1090.23C2156.77 1140.48 2137.78 1187.91 2102.83 1223.77Z" fill="#BD8031"/>
</svg>
